<?xml version="1.0" encoding="utf-8"?>
<!-- Generator: Adobe Illustrator 26.2.1, SVG Export Plug-In . SVG Version: 6.00 Build 0)  -->
<svg version="1.1" id="Calque_1" xmlns="http://www.w3.org/2000/svg" xmlns:xlink="http://www.w3.org/1999/xlink" x="0px" y="0px"
	 viewBox="0 0 809.7 904.4" style="enable-background:new 0 0 809.7 904.4;" xml:space="preserve">
<style type="text/css">
	.st0{fill:rgb(221, 210, 195);}
</style>
<g id="Calque_2_00000094618226906580308600000000552983169720127911_">
	<g id="Calque_1-2">
		<path class="st0" d="M0,364.2V74c0.3-1.2,0.7-2.3,0.9-3.4c0.3-1.6,0.4-3.2,0.7-4.8C8.4,27.8,41.5,0.1,80.1,0h461.4
			c11.4-0.2,22.4,4.5,30.2,12.9c61.5,64.7,123,129.3,184.5,194c10.8,11.4,21.7,22.8,32.5,34.2c6.1,6.4,10.1,13.9,10.9,22.9
			c0.1,0.3,0.2,0.6,0.4,0.9v99.3H720c0.1-12.1,0-29.2,0-41.2v-3.1c-1.2,0-2.2-0.1-3.2-0.1h-74.4c-27.3,0-54.7-0.2-82.1,0
			c-37.6,0.1-70.3-26-78.4-62.8c-1.2-5.5-1.8-11-1.8-16.6c0-52.3,0-104.6,0-156.9v-3.2c-0.7-0.1-1.2-0.3-1.8-0.3s-1.1,0-1.7,0
			c-118.5,0-237.1,0-355.6,0c-10,0-18.9,2.9-26.5,9.4c-9.1,7.4-14.3,18.5-14.3,30.2c-0.1,9.4,0,18.9,0,28.3c0,69.9,0,146.5,0,216.3
			L0,364.2z"/>
		<path class="st0" d="M0.9,721.8V394.9h131.8c28.7,0,52.5,3.3,71.5,9.9s33.2,18,42.7,34.3c9.5,16.3,14.2,39,14.2,68.3
			c0,23.5-3.8,43.1-11.3,58.9c-7.2,15.4-18.9,28.2-33.6,36.7l43,118.8h-88.4l-32.8-99H86.8v99H0.9z M86.9,553.8h48.2
			c9.3,0,16.8-1.9,22.5-5.8c5.7-4,10-9.6,12.3-16.2c2.7-7.7,4-15.8,3.9-23.9c0-14.8-3.3-25.9-9.9-33.3s-17-11.1-31.1-11.1H86.8
			L86.9,553.8z"/>
		<path class="st0" d="M416.1,727.6c-14.9,0-29.8-0.8-44.7-2.4c-15.6-1.6-30.5-3.6-44.7-6c-14.2-2.4-26.1-4.6-35.7-6.5l4.4-66.2
			c10.3,1,22.3,2.3,36,3.9s27.5,3,41.3,4.1c13.8,1.1,25.9,1.7,36.2,1.7c10,0,18-1.1,23.9-3.4c5.9-2.3,10.3-5.6,13-9.9
			c2.7-4.3,4.1-10.1,4.1-17.1c0-5.8-1.3-10.4-3.9-13.8c-2.6-3.4-7.5-6.3-14.7-8.7c-7.2-2.4-17.6-4.8-31.1-7
			c-20.9-3.5-38.5-7.8-52.9-12.8s-25.8-11.3-34.5-18.8c-8.8-7.7-15.3-17.6-18.8-28.7c-3.9-11.6-5.8-25.6-5.8-42
			c0-27.7,4.9-49.1,14.7-64.2c9.8-15.1,23.7-25.8,41.8-31.9c18-6.1,39.4-9.2,64.2-9.2c11.6,0,24.7,0.6,39.4,1.9s29,2.7,43,4.3
			c14,1.6,26.2,3.4,36.5,5.3l-3.4,67.6c-9.7-1-21-2-34-3.1c-13-1.1-26.1-2.2-39.4-3.1c-13.2-1-24.8-1.5-34.8-1.5
			c-9.3,0-17.1,0.9-23.4,2.6c-6.3,1.8-10.8,4.4-13.5,8c-2.7,3.5-4.1,8.2-4.1,14c0,6.5,1.4,11.5,4.4,15.2c2.9,3.7,8,6.7,15.2,9.2
			c7.2,2.4,17.6,5.2,31.1,8.4c20.9,4.5,38.5,9.2,52.6,14c14.2,4.8,25.5,10.8,34,17.9c8.6,7.2,15,16.6,18.6,27.3
			c3.9,11.1,5.8,25.3,5.8,42.7c0,26.4-4.7,47.6-14,63.5c-9.3,15.9-23,27.4-41,34.3C463.8,724.2,441.9,727.6,416.1,727.6z"/>
		<path class="st0" d="M688.9,727.6c-14.9,0-29.8-0.8-44.7-2.4c-15.6-1.6-30.5-3.6-44.7-6s-26.1-4.6-35.7-6.5l4.3-66.2
			c10.3,1,22.3,2.3,36,3.9s27.5,3,41.3,4.1c13.8,1.1,25.9,1.7,36.2,1.7c10,0,18-1.1,23.9-3.4c5.9-2.3,10.3-5.6,13-9.9
			c2.7-4.3,4.1-10.1,4.1-17.1c0-5.8-1.3-10.4-3.9-13.8c-2.6-3.4-7.5-6.3-14.7-8.7c-7.2-2.4-17.6-4.8-31.2-7
			c-20.9-3.5-38.5-7.8-52.9-12.8c-14.3-5-25.8-11.3-34.5-18.8c-8.8-7.7-15.3-17.6-18.8-28.7c-3.9-11.6-5.8-25.6-5.8-42
			c0-27.7,4.9-49.1,14.7-64.2c9.8-15.1,23.7-25.8,41.8-31.9c18-6.1,39.4-9.2,64.2-9.2c11.6,0,24.7,0.6,39.4,1.9
			c14.7,1.3,29,2.7,43,4.3c14,1.6,26.2,3.4,36.5,5.3l-3.4,67.6c-9.7-1-21-2-34-3.1c-13-1.1-26.1-2.2-39.4-3.1
			c-13.2-1-24.8-1.5-34.8-1.5c-9.3,0-17.1,0.9-23.4,2.6s-10.8,4.4-13.5,8c-2.7,3.5-4.1,8.2-4.1,14c0,6.5,1.5,11.5,4.3,15.2
			c2.9,3.7,8,6.7,15.2,9.2c7.2,2.4,17.6,5.2,31.1,8.4c20.9,4.5,38.5,9.2,52.6,14c14.2,4.8,25.5,10.8,34,17.9
			c8.6,7.2,15,16.6,18.6,27.3c3.9,11.1,5.8,25.3,5.8,42.7c0,26.4-4.7,47.6-14,63.5c-9.3,15.9-23,27.4-41,34.3
			C736.6,724.1,714.7,727.6,688.9,727.6z"/>
		<path class="st0" d="M0.3,904.4V749.3h62.5c13.6,0,24.9,1.6,33.9,4.7s15.8,8.5,20.3,16.3c4.5,7.7,6.8,18.5,6.8,32.4
			c0,11.1-1.8,20.5-5.4,28c-3.4,7.3-9,13.4-15.9,17.4l20.4,56.4H81l-15.6-47H41.1v47H0.3z M41.1,824.7H64c4.4,0,8-0.9,10.7-2.8
			c2.7-1.9,4.8-4.6,5.8-7.7c1.3-3.6,1.9-7.5,1.8-11.3c0-7-1.6-12.3-4.7-15.8c-3.1-3.5-8.1-5.3-14.8-5.3H41.1V824.7z"/>
		<path class="st0" d="M141.7,904.4V749.3h108.6v33h-67.8v27.5h54.1v32.8h-54.1v28.6h67.8v33.2L141.7,904.4z"/>
		<path class="st0" d="M257.6,904.4L295,749.3h65.8l37.6,155.1h-41l-6.9-25.7h-46.3l-6.4,25.7L257.6,904.4z M309.8,846.9h35.7
			l-13.8-65.3H324L309.8,846.9z"/>
		<path class="st0" d="M410.6,904.4V749.3h61.9c12.7,0,23.4,1.6,32.3,4.8c8.3,2.8,15.7,7.7,21.4,14.3c5.7,6.9,9.7,14.9,11.8,23.6
			c2.6,10.6,3.8,21.5,3.7,32.4c0.1,11.2-1,22.3-3.5,33.2c-2,9.1-5.8,17.7-11.2,25.2c-5.4,7.1-12.6,12.7-20.9,16
			c-8.7,3.7-19.4,5.5-32.1,5.5L410.6,904.4z M451.4,870.8h19.7c6.4,0,11.6-1.1,15.5-3.4c3.8-2.2,6.9-5.6,8.8-9.6
			c2.1-4.6,3.4-9.6,3.9-14.7c0.6-6.2,0.9-12.4,0.9-18.6c0-5.8-0.3-11.6-1.2-17.3c-0.6-4.6-2-9-4.1-13.1c-1.9-3.6-5-6.5-8.7-8.2
			c-3.8-1.8-8.9-2.8-15.1-2.8h-19.7V870.8z"/>
		<path class="st0" d="M559.6,904.4V749.3h108.6v33h-67.8v27.5h54.1v32.8h-54.1v28.6h67.8v33.2L559.6,904.4z"/>
		<path class="st0" d="M685.6,904.4V749.3h62.6c13.6,0,24.9,1.6,33.9,4.7s15.8,8.5,20.3,16.3c4.5,7.7,6.8,18.5,6.8,32.4
			c0,11.1-1.8,20.5-5.4,28c-3.4,7.3-9,13.4-15.9,17.4l20.4,56.4h-41.9l-15.6-47h-24.3v47H685.6z M726.3,824.7h22.9
			c4.4,0,8-0.9,10.7-2.8c2.7-1.9,4.8-4.6,5.8-7.7c1.3-3.6,1.9-7.5,1.8-11.3c0-7-1.6-12.3-4.7-15.8c-3.1-3.5-8.1-5.3-14.8-5.3h-21.7
			V824.7z"/>
	</g>
</g>
</svg>
